<?xml version="1.0" encoding="UTF-8" standalone="no"?>
<!DOCTYPE svg PUBLIC "-//W3C//DTD SVG 20010904//EN"
              "http://www.w3.org/TR/2001/REC-SVG-20010904/DTD/svg10.dtd">

<svg xmlns="http://www.w3.org/2000/svg"
     width="5.68889in" height="5.68889in"
     viewBox="0 0 512 512">
  <path id="Imported Path"
        fill="none" stroke="currentColor"
        d="M 256.00,512.00
           C 397.38,512.00 512.00,397.38 512.00,256.00
             512.00,114.62 397.38,-0.00 256.00,0.00
             114.62,0.00 -0.00,114.62 -0.00,256.00
             -0.00,397.38 114.62,512.00 256.00,512.00
             256.00,512.00 256.00,512.00 256.00,512.00 Z
           M 216.00,336.00
           C 216.00,336.00 240.00,336.00 240.00,336.00
             240.00,336.00 240.00,272.00 240.00,272.00
             240.00,272.00 216.00,272.00 216.00,272.00
             202.70,272.00 192.00,261.30 192.00,248.00
             192.00,234.70 202.70,224.00 216.00,224.00
             216.00,224.00 264.00,224.00 264.00,224.00
             277.30,224.00 288.00,234.70 288.00,248.00
             288.00,248.00 288.00,336.00 288.00,336.00
             288.00,336.00 296.00,336.00 296.00,336.00
             309.30,336.00 320.00,346.70 320.00,360.00
             320.00,373.30 309.30,384.00 296.00,384.00
             296.00,384.00 216.00,384.00 216.00,384.00
             202.70,384.00 192.00,373.30 192.00,360.00
             192.00,346.70 202.70,336.00 216.00,336.00 Z
           M 256.00,128.00
           C 273.67,128.00 288.00,142.33 288.00,160.00
             288.00,177.67 273.67,192.00 256.00,192.00
             238.33,192.00 224.00,177.67 224.00,160.00
             224.00,142.33 238.33,128.00 256.00,128.00
             256.00,128.00 256.00,128.00 256.00,128.00 Z" />
</svg>
